<?xml version="1.0" standalone="no"?>
<!DOCTYPE svg PUBLIC "-//W3C//DTD SVG 20010904//EN"
 "http://www.w3.org/TR/2001/REC-SVG-20010904/DTD/svg10.dtd">
<svg version="1.0" xmlns="http://www.w3.org/2000/svg"
 width="900.000000pt" height="900.000000pt" viewBox="0 0 900.000000 900.000000"
 preserveAspectRatio="xMidYMid meet">
<metadata>
Created by potrace 1.10, written by Peter Selinger 2001-2011
</metadata>
<g transform="translate(0.000000,900.000000) scale(0.100000,-0.100000)"
fill="#6bac5f" stroke="none">
<path d="M4200 8819 c-74 -4 -154 -12 -178 -18 -24 -7 -66 -11 -95 -10 -29 1
-85 -6 -124 -16 -40 -9 -77 -14 -82 -11 -5 3 -27 0 -48 -8 -22 -8 -63 -16 -91
-19 -28 -3 -55 -8 -61 -11 -5 -4 -36 -11 -68 -17 -32 -6 -62 -15 -68 -19 -5
-4 -28 -11 -49 -14 -22 -4 -44 -10 -50 -15 -6 -5 -30 -12 -54 -16 -24 -4 -56
-13 -70 -21 -15 -8 -37 -14 -49 -14 -12 0 -24 -4 -27 -9 -3 -5 -22 -12 -42
-16 -37 -7 -44 -9 -102 -38 -19 -9 -40 -17 -49 -17 -22 0 -72 -23 -353 -160
-140 -69 -179 -89 -190 -100 -3 -3 -23 -14 -45 -25 -39 -19 -102 -59 -253
-161 -40 -27 -83 -54 -95 -61 -30 -16 -228 -175 -341 -273 -110 -96 -319 -306
-412 -416 -91 -106 -232 -285 -247 -312 -7 -12 -28 -46 -48 -74 -77 -112 -155
-235 -182 -288 -15 -30 -33 -61 -40 -70 -8 -8 -44 -78 -81 -155 -145 -301
-156 -326 -156 -348 0 -9 -8 -30 -17 -49 -29 -58 -31 -65 -38 -102 -4 -20 -11
-39 -16 -42 -5 -3 -9 -15 -9 -27 0 -12 -7 -35 -15 -51 -8 -16 -18 -47 -21 -70
-4 -22 -10 -45 -14 -51 -4 -5 -11 -29 -15 -52 -4 -24 -11 -45 -15 -48 -5 -3
-12 -27 -16 -53 -4 -26 -11 -58 -16 -72 -5 -14 -12 -43 -14 -65 -2 -22 -9 -60
-13 -85 -31 -151 -43 -222 -46 -280 -2 -36 -9 -99 -15 -140 -19 -125 -16 -690
4 -865 9 -82 22 -170 28 -195 6 -25 14 -74 19 -110 9 -74 31 -186 53 -275 9
-33 21 -83 28 -112 7 -28 16 -55 21 -59 4 -4 7 -18 7 -32 0 -13 6 -38 13 -55
19 -44 37 -96 47 -132 4 -16 15 -43 24 -60 9 -16 16 -40 16 -52 0 -12 5 -25
10 -28 5 -3 10 -14 10 -23 0 -9 7 -30 15 -46 8 -15 15 -36 15 -46 0 -10 6 -25
13 -32 8 -7 22 -31 31 -53 10 -22 22 -47 27 -55 4 -8 17 -35 29 -60 11 -25 24
-52 29 -60 19 -28 61 -119 61 -129 0 -6 5 -11 10 -11 6 0 10 -5 10 -11 0 -9
47 -93 100 -179 5 -8 27 -45 49 -81 22 -36 47 -71 55 -79 9 -7 16 -18 16 -24
0 -7 11 -23 25 -36 14 -13 25 -27 25 -32 0 -8 96 -136 148 -198 245 -292 475
-519 702 -690 47 -35 87 -68 88 -72 2 -4 8 -8 13 -8 5 0 38 -22 72 -48 72 -55
155 -112 165 -112 4 0 25 -14 46 -30 22 -17 46 -30 53 -30 7 0 13 -4 13 -9 0
-5 10 -13 22 -17 12 -3 49 -23 82 -43 55 -34 226 -120 397 -200 37 -17 74 -31
82 -31 9 0 19 -4 22 -10 3 -5 15 -10 26 -10 10 0 36 -9 56 -20 21 -11 45 -20
55 -20 9 0 20 -5 23 -10 3 -6 22 -10 41 -10 21 0 37 -6 40 -15 3 -8 22 -17 42
-20 21 -3 45 -10 54 -15 9 -5 36 -13 60 -16 24 -4 48 -10 53 -14 6 -4 31 -11
57 -14 26 -4 50 -11 53 -16 3 -4 32 -11 65 -15 33 -4 63 -11 66 -16 3 -5 22
-9 42 -9 20 0 55 -5 77 -11 22 -6 74 -15 115 -20 41 -5 86 -13 100 -19 14 -5
72 -11 130 -14 58 -3 148 -10 200 -15 253 -27 784 4 1042 60 26 6 71 15 100
19 81 14 170 35 201 48 16 7 43 12 62 12 19 0 37 5 40 10 3 6 18 10 33 10 15
1 38 7 52 15 14 8 37 14 51 15 15 0 38 9 52 20 14 11 37 20 50 20 14 0 29 5
32 10 3 6 17 10 31 10 13 0 41 9 61 20 21 11 43 20 50 20 8 0 21 4 31 9 44 22
152 71 159 71 11 0 287 139 348 175 61 37 97 57 153 86 23 13 42 27 42 31 0 4
6 8 13 8 8 0 22 9 32 20 10 11 24 20 32 20 7 0 13 5 13 10 0 6 6 10 14 10 7 0
19 7 26 15 7 8 44 36 81 61 38 25 82 59 98 75 16 16 32 29 36 29 22 0 229 183
395 350 167 166 350 373 350 395 0 4 13 20 29 36 16 16 50 60 75 98 25 37 53
74 61 81 8 7 15 19 15 26 0 8 5 14 10 14 6 0 10 6 10 13 0 8 9 22 20 32 11 10
20 24 20 32 0 7 4 13 8 13 5 0 19 23 32 50 13 28 27 50 31 50 4 0 11 10 15 23
4 12 18 40 32 62 34 54 182 346 182 359 0 9 29 73 71 158 5 10 9 23 9 31 0 7
9 29 20 50 11 20 20 48 20 61 0 14 4 28 10 31 5 3 10 18 10 32 0 13 9 36 20
50 11 14 20 40 20 57 0 17 7 40 15 50 8 11 15 32 15 47 0 15 5 31 10 34 6 3
10 21 10 40 0 19 5 46 12 62 13 31 34 120 48 201 4 29 13 74 19 100 57 259 87
794 60 1042 -6 52 -14 147 -19 210 -10 129 -26 249 -41 296 -5 18 -14 60 -19
95 -12 84 -33 181 -42 195 -4 6 -10 31 -14 55 -4 24 -10 49 -14 54 -4 6 -10
29 -14 53 -3 24 -11 51 -16 60 -5 9 -12 33 -15 54 -3 20 -12 39 -20 42 -9 3
-15 19 -15 40 0 19 -4 38 -10 41 -5 3 -10 14 -10 23 0 10 -9 34 -20 55 -11 20
-20 46 -20 56 0 11 -4 23 -10 26 -5 3 -10 13 -10 22 0 17 -25 72 -126 279 -35
72 -64 136 -64 142 0 5 -4 12 -8 14 -11 4 -82 123 -82 137 0 6 -4 11 -10 11
-5 0 -10 6 -10 13 0 7 -13 31 -30 53 -16 21 -30 42 -30 46 0 10 -57 93 -112
165 -26 34 -48 67 -48 72 0 5 -4 11 -8 13 -4 2 -37 41 -72 88 -171 227 -398
457 -690 702 -62 52 -190 148 -198 148 -5 0 -19 11 -32 25 -13 14 -29 25 -36
25 -6 0 -17 7 -24 16 -8 8 -43 33 -79 55 -36 22 -73 44 -81 49 -89 55 -201
119 -218 124 -11 4 -40 18 -64 31 -38 22 -65 35 -133 66 -11 5 -27 13 -35 18
-8 5 -33 17 -55 27 -22 9 -46 23 -53 31 -7 7 -22 13 -32 13 -10 0 -31 7 -46
15 -16 8 -37 15 -46 15 -9 0 -20 5 -23 10 -3 6 -16 10 -28 10 -12 0 -35 7 -52
16 -16 9 -43 20 -60 24 -36 10 -88 28 -132 47 -17 7 -42 13 -55 13 -14 0 -28
3 -32 7 -8 8 -70 25 -156 43 -25 6 -52 13 -60 17 -17 7 -134 29 -225 42 -33 4
-83 13 -110 19 -173 38 -612 57 -945 41z m570 -418 c47 -5 108 -12 135 -16 28
-3 84 -11 125 -16 177 -23 215 -29 239 -38 15 -5 45 -12 69 -15 24 -4 51 -11
60 -16 9 -5 38 -12 64 -15 26 -3 50 -10 53 -15 3 -5 27 -12 53 -16 26 -4 56
-13 67 -20 11 -8 32 -14 47 -14 15 0 30 -4 33 -10 3 -5 16 -10 27 -10 18 0 69
-20 130 -51 10 -5 23 -9 29 -9 7 0 33 -10 58 -21 25 -12 57 -26 71 -31 44 -17
144 -65 298 -142 48 -24 247 -143 293 -175 20 -15 47 -33 59 -41 61 -40 283
-210 346 -265 39 -34 79 -68 90 -76 30 -23 284 -288 334 -348 25 -30 53 -63
63 -73 10 -11 61 -77 113 -146 51 -70 97 -131 102 -137 15 -19 72 -115 72
-122 0 -4 9 -16 19 -27 20 -21 36 -50 122 -214 27 -51 53 -100 59 -110 5 -9
18 -37 28 -62 11 -25 34 -75 51 -111 17 -37 31 -72 31 -78 0 -11 4 -20 33 -79
9 -19 17 -44 17 -56 0 -12 6 -30 14 -41 7 -11 23 -54 35 -95 12 -41 26 -83 32
-92 5 -10 11 -34 14 -53 2 -19 8 -43 14 -53 5 -10 12 -36 15 -58 3 -21 12 -57
20 -79 8 -22 15 -57 16 -78 0 -21 4 -46 10 -56 5 -10 12 -49 15 -87 4 -37 13
-93 21 -123 8 -30 14 -80 14 -111 0 -30 5 -93 10 -140 15 -128 13 -393 -5
-594 -8 -98 -18 -183 -22 -189 -3 -5 -8 -37 -10 -71 -2 -34 -11 -88 -18 -121
-8 -33 -17 -80 -21 -105 -3 -25 -9 -49 -13 -55 -6 -10 -22 -80 -41 -177 -5
-27 -16 -58 -24 -70 -9 -12 -16 -35 -16 -50 0 -15 -4 -30 -10 -33 -5 -3 -10
-16 -10 -28 0 -12 -9 -35 -20 -52 -11 -16 -20 -40 -20 -52 0 -12 -11 -44 -25
-71 -14 -28 -25 -58 -25 -67 0 -9 -23 -65 -51 -123 -28 -59 -58 -123 -67 -142
-10 -19 -20 -37 -23 -40 -3 -3 -23 -41 -45 -85 -21 -44 -42 -82 -45 -85 -3 -3
-29 -45 -59 -95 -30 -49 -57 -92 -60 -95 -4 -3 -15 -22 -25 -43 -10 -21 -26
-42 -36 -48 -11 -5 -19 -15 -19 -21 0 -10 -89 -135 -127 -178 -16 -18 -38 -46
-73 -91 -33 -43 -436 -446 -479 -479 -45 -35 -73 -57 -91 -73 -43 -38 -168
-127 -178 -127 -6 0 -16 -8 -21 -19 -6 -10 -27 -26 -48 -36 -21 -10 -40 -21
-43 -25 -3 -3 -45 -30 -95 -60 -49 -30 -92 -56 -95 -59 -3 -3 -41 -24 -85 -45
-44 -22 -82 -42 -85 -45 -3 -3 -21 -13 -40 -23 -135 -64 -168 -78 -177 -78 -6
0 -16 -6 -22 -14 -7 -8 -27 -18 -44 -21 -33 -6 -64 -18 -109 -41 -14 -8 -37
-14 -50 -14 -12 0 -36 -9 -53 -20 -16 -11 -40 -20 -52 -20 -12 0 -25 -4 -28
-10 -3 -5 -18 -10 -33 -10 -15 0 -38 -7 -50 -16 -12 -8 -43 -19 -70 -24 -91
-18 -167 -36 -195 -48 -16 -7 -41 -12 -57 -12 -16 0 -55 -6 -87 -14 -32 -8
-85 -17 -119 -19 -34 -2 -66 -7 -71 -10 -19 -12 -368 -38 -511 -38 -153 -1
-403 16 -492 32 -30 6 -93 14 -139 20 -46 5 -92 14 -102 19 -10 6 -34 10 -53
10 -19 0 -56 7 -82 16 -26 9 -63 18 -82 20 -19 3 -43 9 -53 15 -11 5 -35 12
-54 14 -19 3 -43 9 -53 14 -9 5 -51 19 -92 32 -41 12 -84 28 -95 36 -11 7 -29
13 -41 13 -12 0 -37 8 -56 17 -59 29 -68 33 -79 33 -6 0 -41 14 -78 31 -36 17
-86 40 -111 51 -25 10 -54 24 -65 30 -11 6 -54 29 -95 51 -153 79 -206 109
-226 128 -11 10 -24 19 -28 19 -20 0 -348 234 -404 287 -10 10 -43 38 -73 63
-60 50 -325 304 -348 334 -8 11 -42 51 -76 90 -55 63 -225 285 -265 346 -8 12
-26 39 -41 59 -32 46 -151 245 -175 293 -77 154 -125 254 -142 298 -5 14 -18
45 -30 70 -11 25 -27 65 -35 90 -9 25 -22 59 -31 75 -9 17 -16 40 -16 52 0 12
-5 25 -10 28 -6 3 -10 18 -10 33 0 15 -6 36 -14 47 -7 11 -16 41 -20 67 -4 26
-11 50 -16 53 -5 3 -12 27 -15 53 -3 26 -10 55 -15 64 -5 9 -12 36 -16 60 -3
24 -12 65 -20 92 -8 27 -14 71 -14 97 0 26 -4 50 -9 53 -5 3 -12 45 -16 93 -4
49 -9 102 -12 118 -24 155 -31 614 -12 720 5 27 12 79 15 115 3 36 10 90 15
120 6 30 14 89 20 130 5 41 13 86 18 100 6 14 13 49 16 77 4 29 11 55 16 59 5
3 9 22 9 42 0 21 7 47 15 59 8 11 17 39 21 62 4 23 11 44 15 47 5 3 9 15 9 27
0 12 7 35 15 51 8 15 15 36 15 45 0 9 6 28 14 42 7 14 16 39 20 55 6 28 23 68
53 126 7 14 13 33 13 40 0 8 11 35 25 59 14 24 28 51 31 59 3 8 12 29 20 47 8
17 14 36 14 41 0 6 5 12 12 14 6 2 12 14 13 27 1 12 6 26 12 29 5 4 20 30 34
57 30 62 168 295 186 313 7 7 13 17 13 21 0 5 10 19 23 33 33 37 67 86 67 97
0 5 3 11 8 13 4 2 52 59 106 128 128 160 426 458 586 586 69 54 127 102 128
107 2 4 8 7 13 7 11 0 60 34 97 68 14 12 28 22 33 22 4 0 14 6 21 13 20 20
231 145 327 194 47 24 93 48 101 53 8 5 31 16 50 23 19 8 42 18 50 21 8 3 35
17 59 31 24 14 51 25 59 25 7 0 26 6 40 13 58 30 98 47 126 53 16 4 41 13 55
20 14 8 33 14 42 14 9 0 30 7 45 15 16 8 39 15 51 15 12 0 24 4 27 9 3 5 26
12 51 15 24 4 47 11 50 15 2 5 26 12 52 16 27 4 53 11 58 15 10 8 62 19 225
45 47 8 110 19 140 24 30 5 84 12 120 15 36 3 85 10 110 14 62 12 505 13 610
3z"/>
<path d="M6311 6993 c-52 -2 -101 -9 -108 -15 -7 -5 -43 -12 -80 -14 -38 -1
-102 -8 -143 -15 -41 -7 -95 -13 -118 -14 -24 -1 -47 -8 -52 -15 -5 -9 -33
-15 -77 -17 -37 -1 -75 -6 -83 -9 -8 -4 -46 -12 -85 -20 -81 -14 -153 -33
-176 -44 -9 -5 -41 -11 -73 -15 -31 -4 -59 -11 -62 -16 -3 -5 -15 -9 -27 -9
-13 0 -32 -7 -43 -15 -12 -8 -39 -15 -60 -16 -21 -2 -55 -11 -74 -21 -19 -10
-47 -18 -62 -18 -15 0 -30 -4 -33 -10 -3 -5 -15 -10 -26 -10 -11 0 -37 -9 -59
-20 -22 -11 -48 -20 -60 -20 -11 0 -28 -4 -38 -9 -24 -12 -81 -31 -120 -41
-18 -4 -38 -12 -45 -18 -7 -5 -28 -12 -49 -16 -20 -4 -39 -13 -42 -21 -3 -8
-16 -15 -30 -15 -14 0 -28 -4 -31 -10 -3 -5 -13 -10 -22 -10 -15 0 -65 -19
-116 -46 -16 -8 -33 -14 -38 -14 -5 0 -37 -13 -71 -30 -34 -16 -69 -30 -79
-30 -10 0 -20 -4 -24 -9 -7 -13 -110 -61 -129 -61 -9 0 -16 -4 -16 -10 0 -5
-8 -10 -19 -10 -10 0 -30 -9 -44 -20 -14 -11 -30 -20 -35 -20 -10 0 -89 -36
-142 -65 -14 -8 -41 -21 -60 -30 -144 -68 -185 -90 -188 -97 -4 -9 -85 -48
-101 -48 -6 0 -11 -3 -11 -8 0 -4 -24 -18 -52 -32 -29 -13 -55 -27 -58 -31 -3
-4 -43 -27 -90 -53 -47 -25 -92 -50 -100 -56 -8 -6 -27 -15 -42 -21 -16 -6
-28 -14 -28 -18 0 -3 -21 -18 -47 -31 -27 -14 -50 -28 -53 -31 -3 -4 -14 -9
-25 -13 -11 -3 -32 -17 -47 -31 -15 -14 -31 -25 -36 -25 -4 0 -24 -12 -43 -26
-19 -14 -44 -30 -56 -35 -13 -5 -23 -13 -23 -18 0 -6 -17 -18 -37 -27 -21 -10
-54 -30 -73 -46 -19 -15 -40 -28 -46 -28 -10 0 -24 -10 -71 -50 -7 -5 -16 -10
-20 -10 -5 0 -16 -8 -25 -17 -24 -25 -40 -38 -60 -46 -10 -3 -18 -12 -18 -18
0 -11 56 -101 121 -196 16 -23 29 -45 29 -49 0 -4 13 -29 30 -55 16 -27 32
-60 36 -74 3 -14 10 -25 15 -25 5 0 9 -6 9 -12 1 -7 9 -31 20 -53 11 -22 19
-45 20 -51 0 -5 11 -34 25 -62 14 -29 25 -59 25 -67 0 -8 9 -38 20 -66 12 -29
19 -58 16 -65 -3 -8 1 -19 8 -26 7 -7 16 -26 20 -41 6 -26 7 -27 35 -13 16 9
31 22 34 30 4 9 21 22 39 30 18 7 42 22 53 33 11 10 28 22 38 26 9 3 17 11 17
17 0 5 4 10 10 10 7 0 111 72 155 108 6 4 18 11 28 15 9 3 17 11 17 17 0 5 4
10 10 10 9 0 133 88 161 115 9 8 21 15 27 15 7 0 12 4 12 10 0 5 11 12 25 16
14 3 25 10 25 15 0 5 5 9 11 9 7 0 31 15 54 34 23 19 55 43 72 53 113 66 173
105 173 112 0 4 19 15 43 25 23 10 47 24 52 30 6 7 28 23 50 36 22 13 42 27
45 30 3 4 26 17 53 30 26 13 47 27 47 31 0 4 11 10 25 13 14 4 25 11 25 16 0
6 6 10 13 10 8 0 24 9 37 20 13 11 29 20 37 20 7 0 13 5 13 10 0 6 6 10 13 10
7 0 35 15 62 33 28 18 66 40 85 50 19 10 42 22 50 27 8 5 36 18 62 30 26 11
50 24 53 30 3 5 15 10 25 10 10 0 25 6 32 13 7 6 29 19 48 29 51 24 132 60
155 68 11 4 41 17 66 29 25 11 53 21 62 21 9 0 19 5 22 10 3 6 18 10 33 10 15
0 39 6 54 14 14 8 46 17 70 21 24 4 48 11 53 15 8 6 57 12 175 21 34 3 156
-14 165 -22 5 -5 16 -9 25 -9 28 0 141 -82 165 -120 13 -20 29 -43 37 -51 7
-8 23 -34 34 -58 20 -40 22 -58 20 -226 -1 -150 -4 -186 -17 -201 -8 -11 -16
-35 -18 -54 -1 -19 -6 -39 -11 -44 -6 -6 -10 -21 -10 -34 0 -14 -9 -43 -19
-66 -37 -80 -51 -114 -51 -127 0 -7 -18 -50 -40 -95 -22 -46 -40 -86 -40 -91
0 -11 -125 -258 -145 -285 -8 -13 -15 -29 -15 -36 0 -8 -13 -32 -28 -55 -35
-53 -46 -71 -74 -127 -13 -25 -25 -47 -29 -50 -3 -3 -15 -25 -27 -49 -13 -24
-29 -50 -37 -58 -8 -8 -15 -20 -15 -27 0 -8 -7 -19 -15 -26 -8 -7 -15 -19 -15
-27 0 -7 -8 -26 -19 -41 -10 -15 -35 -54 -56 -87 -20 -33 -50 -79 -66 -102
-16 -23 -29 -46 -29 -51 0 -6 -20 -37 -45 -70 -25 -33 -45 -67 -45 -76 0 -8
-9 -20 -20 -26 -11 -6 -20 -15 -20 -20 0 -5 -22 -42 -49 -82 -26 -40 -54 -84
-61 -97 -7 -14 -22 -34 -33 -45 -10 -12 -25 -34 -33 -51 -7 -16 -24 -43 -38
-59 -15 -16 -26 -33 -26 -38 0 -10 -16 -31 -42 -56 -10 -9 -18 -22 -18 -29 0
-7 -5 -13 -10 -13 -6 0 -15 -10 -20 -22 -18 -41 -52 -93 -77 -118 -43 -43 -47
-59 -18 -70 15 -6 30 -10 34 -10 5 0 14 -7 21 -15 8 -9 29 -15 56 -15 23 0 45
-4 48 -9 3 -5 27 -12 53 -16 27 -4 53 -10 58 -15 6 -4 27 -10 48 -14 20 -4 37
-11 37 -16 0 -6 10 -10 23 -10 13 0 32 -7 43 -15 10 -8 28 -15 40 -15 12 0 31
-9 44 -20 13 -11 29 -20 36 -20 12 0 73 -29 84 -40 3 -3 28 -16 55 -30 28 -14
52 -27 55 -30 15 -15 68 -48 88 -54 27 -9 60 22 92 85 13 24 29 51 37 59 21
22 76 110 101 161 12 24 33 57 47 73 14 16 25 37 25 48 0 10 4 18 9 18 5 0 14
12 20 28 6 15 27 52 46 82 18 30 45 78 60 105 14 28 41 77 60 110 18 33 50 94
70 135 20 41 41 84 47 95 19 33 93 185 128 260 17 39 45 97 60 130 60 129 70
152 70 163 0 7 4 12 9 12 5 0 13 15 16 33 4 17 14 41 21 52 8 11 14 27 14 37
0 10 5 18 10 18 6 0 10 8 10 18 1 9 9 35 20 57 11 22 19 45 20 51 0 6 7 17 15
24 8 7 15 25 15 41 0 16 4 29 10 29 5 0 12 16 16 35 3 19 10 38 15 41 5 3 9
16 9 30 0 14 10 44 22 67 32 62 35 69 43 107 4 19 12 38 17 41 5 3 14 24 19
45 6 21 15 57 20 79 6 22 14 44 20 49 5 6 9 19 9 31 0 11 9 37 20 58 11 20 20
48 20 61 0 14 4 27 9 30 5 3 12 23 16 43 4 21 10 42 13 48 4 5 12 33 18 60 12
51 30 106 45 137 5 10 9 26 9 35 0 18 35 141 51 178 11 25 29 124 36 193 3 37
10 55 23 62 13 7 20 25 23 62 8 76 27 180 38 200 5 10 9 40 9 68 0 27 6 67 14
87 8 21 17 66 20 101 3 35 10 71 15 80 5 9 12 67 16 127 4 61 11 115 15 120 5
6 10 48 13 95 2 47 10 115 17 151 21 105 36 99 -227 97 -125 -1 -271 -4 -322
-5z"/>
<path d="M5216 5535 c-11 -8 -34 -15 -50 -15 -17 0 -52 -7 -78 -14 -25 -8 -48
-12 -51 -10 -3 3 -22 -4 -43 -15 -21 -12 -44 -21 -51 -21 -8 0 -21 -4 -31 -9
-9 -4 -33 -15 -52 -23 -19 -8 -51 -22 -70 -31 -19 -8 -51 -22 -70 -30 -58 -24
-83 -36 -135 -67 -27 -16 -76 -42 -107 -56 -32 -15 -58 -30 -58 -35 0 -4 -13
-10 -30 -14 -16 -4 -30 -10 -30 -15 0 -4 -8 -10 -17 -14 -10 -3 -31 -15 -48
-26 -27 -18 -58 -36 -150 -88 -16 -9 -31 -20 -33 -24 -2 -5 -8 -8 -13 -8 -5 0
-32 -16 -59 -35 -27 -19 -52 -35 -55 -35 -6 0 -20 -11 -50 -37 -7 -7 -18 -13
-23 -13 -5 0 -28 -13 -50 -30 -23 -16 -48 -30 -55 -30 -7 0 -20 -8 -28 -17
-18 -20 -16 -19 -154 -108 -55 -36 -101 -70 -103 -75 -2 -5 -23 -19 -48 -31
-24 -13 -44 -26 -44 -31 0 -4 -7 -8 -15 -8 -7 0 -18 -6 -22 -12 -10 -16 -98
-78 -110 -78 -4 0 -22 -14 -40 -30 -18 -17 -37 -30 -43 -30 -6 0 -13 -7 -16
-15 -4 -8 -10 -15 -15 -15 -5 0 -28 -15 -52 -32 -24 -18 -54 -40 -67 -48 -12
-8 -28 -20 -34 -26 -6 -6 -43 -32 -81 -59 -39 -27 -83 -61 -99 -77 -17 -15
-34 -28 -38 -28 -5 0 -22 -10 -38 -22 -29 -21 -30 -23 -29 -112 0 -50 -4 -104
-10 -119 -6 -15 -14 -63 -17 -105 -3 -42 -9 -81 -14 -87 -4 -5 -11 -28 -15
-50 -4 -22 -10 -44 -15 -50 -4 -5 -10 -30 -14 -55 -4 -24 -11 -47 -15 -50 -8
-5 -15 -41 -12 -66 1 -6 20 -11 43 -12 49 -2 139 -32 213 -69 83 -42 105 -56
105 -63 0 -5 8 -11 18 -14 20 -7 129 -111 175 -169 41 -51 92 -135 102 -168 4
-13 12 -27 17 -30 9 -6 24 -52 35 -112 7 -38 22 -42 87 -23 30 9 72 16 95 16
27 0 43 5 49 17 7 12 39 19 143 30 74 8 154 14 178 13 45 -1 91 21 91 43 0 7
11 26 25 42 38 46 125 163 125 170 0 8 82 129 96 140 7 6 22 30 34 53 12 23
26 45 31 48 14 8 139 199 139 211 0 6 7 13 15 17 8 3 15 12 15 20 0 8 4 16 8
18 4 2 25 32 47 68 49 83 126 201 142 218 7 7 13 18 13 24 0 5 14 27 30 48 17
21 30 45 30 53 0 8 4 17 8 19 10 4 99 152 107 178 4 11 10 20 13 20 4 0 25 34
47 75 21 41 42 75 46 75 4 0 10 13 14 30 4 16 10 32 15 35 5 3 19 27 32 53 12
26 42 79 65 118 24 39 43 76 43 81 0 6 11 31 25 57 14 26 25 53 25 60 0 8 6
19 14 25 8 7 17 24 20 39 8 33 37 92 54 110 6 7 12 26 12 42 0 16 4 31 9 35
11 6 41 103 41 132 0 10 7 31 15 47 8 15 15 36 15 46 0 11 5 31 12 47 14 34
18 161 6 186 -10 19 -70 47 -102 47 -11 0 -30 -7 -40 -15z"/>
<path d="M2415 3050 c-3 -5 -18 -10 -32 -10 -24 0 -60 -13 -129 -47 -48 -23
-117 -91 -166 -163 -49 -73 -71 -156 -71 -269 1 -65 27 -200 41 -211 4 -3 16
-23 27 -44 18 -35 97 -122 136 -151 25 -18 106 -55 121 -55 8 0 18 -4 24 -9
12 -13 161 -19 221 -10 125 19 222 69 288 147 47 56 97 143 108 187 16 70 20
225 6 269 -20 65 -52 140 -66 154 -7 7 -13 17 -13 21 0 18 -106 113 -149 134
-25 12 -48 25 -51 28 -3 4 -29 10 -57 14 -29 4 -53 11 -53 16 0 12 -177 11
-185 -1z"/>
</g>
</svg>
