<?xml version="1.0" standalone="no"?>
<!DOCTYPE svg PUBLIC "-//W3C//DTD SVG 20010904//EN"
 "http://www.w3.org/TR/2001/REC-SVG-20010904/DTD/svg10.dtd">
<svg version="1.0" xmlns="http://www.w3.org/2000/svg"
 width="300.000000pt" height="300.000000pt" viewBox="0 0 300.000000 300.000000"
 preserveAspectRatio="xMidYMid meet">
<metadata>
Created by potrace 1.10, written by Peter Selinger 2001-2011
</metadata>
<g transform="translate(0.000000,300.000000) scale(0.100000,-0.100000)"
fill="#000000" stroke="none">
<path d="M1275 2935 c-643 -105 -1134 -613 -1215 -1259 -16 -121 -8 -341 15
-451 42 -202 141 -428 255 -581 470 -629 1328 -777 1981 -342 124 82 305 263
387 387 309 464 332 1053 60 1528 -209 364 -558 617 -978 708 -107 23 -389 29
-505 10z m522 -169 c260 -65 462 -182 644 -374 171 -180 281 -392 335 -647 26
-123 24 -370 -4 -502 -56 -261 -171 -472 -357 -658 -186 -186 -397 -301 -658
-357 -132 -28 -379 -30 -502 -4 -255 54 -467 164 -647 335 -193 183 -309 384
-376 649 -24 96 -26 126 -27 287 0 199 13 280 67 435 152 430 526 757 963 843
125 25 131 26 300 22 130 -3 179 -8 262 -29z"/>
<path d="M2025 2324 c-368 -50 -785 -220 -1167 -476 l-87 -58 41 -66 c22 -36
53 -101 68 -145 l26 -79 100 71 c401 289 673 421 797 388 191 -51 118 -317
-232 -844 -58 -88 -107 -165 -109 -171 -1 -6 23 -17 55 -24 31 -8 96 -33 142
-57 47 -23 89 -39 93 -35 4 4 37 57 74 117 175 291 342 705 413 1030 23 104
51 288 51 334 l0 31 -82 -1 c-46 -1 -128 -7 -183 -15z"/>
<path d="M1658 1826 c-127 -45 -322 -161 -581 -347 l-162 -116 -7 -69 c-4 -38
-14 -88 -22 -111 l-15 -43 27 -6 c85 -21 159 -82 195 -162 l27 -59 62 13 c35
8 79 14 98 14 33 0 39 6 114 116 258 378 402 653 394 753 -3 32 -6 36 -33 39
-16 1 -60 -9 -97 -22z"/>
<path d="M754 1001 c-118 -72 -100 -246 31 -296 50 -20 93 -15 143 15 103 63
96 233 -11 284 -48 22 -124 21 -163 -3z"/>
</g>
</svg>
